<?xml version="1.0" encoding="us-ascii" standalone="no"?><svg xmlns="http://www.w3.org/2000/svg" xmlns:xlink="http://www.w3.org/1999/xlink" contentStyleType="text/css" height="1339px" preserveAspectRatio="none" style="width:1008px;height:1339px;background:#FFFFFF;" version="1.1" viewBox="0 0 1008 1339" width="1008px" zoomAndPan="magnify"><defs/><g><text fill="#000000" font-family="sans-serif" font-size="14" font-weight="bold" lengthAdjust="spacing" textLength="254" x="378.25" y="29.5332">1. Authentication Sequence Diagram</text><rect fill="none" height="1041.1094" style="stroke:#000000;stroke-width:1.5;" width="991.5" x="10" y="198.9219"/><rect fill="none" height="216.2969" style="stroke:#000000;stroke-width:1.5;" width="697" x="20" y="436.7344"/><rect fill="none" height="337.7031" style="stroke:#000000;stroke-width:1.5;" width="971.5" x="20" y="895.3281"/><line style="stroke:#181818;stroke-width:0.5;stroke-dasharray:5.0,5.0;" x1="84" x2="84" y1="121.2188" y2="1257.0313"/><line style="stroke:#181818;stroke-width:0.5;stroke-dasharray:5.0,5.0;" x1="294" x2="294" y1="121.2188" y2="1257.0313"/><line style="stroke:#181818;stroke-width:0.5;stroke-dasharray:5.0,5.0;" x1="432.5" x2="432.5" y1="121.2188" y2="1257.0313"/><line style="stroke:#181818;stroke-width:0.5;stroke-dasharray:5.0,5.0;" x1="662" x2="662" y1="121.2188" y2="1257.0313"/><line style="stroke:#181818;stroke-width:0.5;stroke-dasharray:5.0,5.0;" x1="815.5" x2="815.5" y1="121.2188" y2="1257.0313"/><line style="stroke:#181818;stroke-width:0.5;stroke-dasharray:5.0,5.0;" x1="947.5" x2="947.5" y1="121.2188" y2="1257.0313"/><text fill="#000000" font-family="sans-serif" font-size="14" lengthAdjust="spacing" textLength="102" x="30" y="118.1426">Registered User</text><ellipse cx="84" cy="52.1094" fill="#E2E2F0" rx="8" ry="8" style="stroke:#181818;stroke-width:0.5;"/><path d="M84,60.1094 L84,87.1094 M71,68.1094 L97,68.1094 M84,87.1094 L71,102.1094 M84,87.1094 L97,102.1094 " fill="none" style="stroke:#181818;stroke-width:0.5;"/><text fill="#000000" font-family="sans-serif" font-size="14" lengthAdjust="spacing" textLength="102" x="30" y="1270.5645">Registered User</text><ellipse cx="84" cy="1282.1406" fill="#E2E2F0" rx="8" ry="8" style="stroke:#181818;stroke-width:0.5;"/><path d="M84,1290.1406 L84,1317.1406 M71,1298.1406 L97,1298.1406 M84,1317.1406 L71,1332.1406 M84,1317.1406 L97,1332.1406 " fill="none" style="stroke:#181818;stroke-width:0.5;"/><rect fill="#E2E2F0" height="31.6094" rx="2.5" ry="2.5" style="stroke:#181818;stroke-width:0.5;" width="72" x="258" y="88.6094"/><text fill="#000000" font-family="sans-serif" font-size="14" lengthAdjust="spacing" textLength="58" x="265" y="110.1426">Frontend</text><rect fill="#E2E2F0" height="31.6094" rx="2.5" ry="2.5" style="stroke:#181818;stroke-width:0.5;" width="72" x="258" y="1256.0313"/><text fill="#000000" font-family="sans-serif" font-size="14" lengthAdjust="spacing" textLength="58" x="265" y="1277.5645">Frontend</text><rect fill="#E2E2F0" height="31.6094" rx="2.5" ry="2.5" style="stroke:#181818;stroke-width:0.5;" width="105" x="380.5" y="88.6094"/><text fill="#000000" font-family="sans-serif" font-size="14" lengthAdjust="spacing" textLength="91" x="387.5" y="110.1426">AuthController</text><rect fill="#E2E2F0" height="31.6094" rx="2.5" ry="2.5" style="stroke:#181818;stroke-width:0.5;" width="105" x="380.5" y="1256.0313"/><text fill="#000000" font-family="sans-serif" font-size="14" lengthAdjust="spacing" textLength="91" x="387.5" y="1277.5645">AuthController</text><rect fill="#E2E2F0" height="31.6094" rx="2.5" ry="2.5" style="stroke:#181818;stroke-width:0.5;" width="90" x="617" y="88.6094"/><text fill="#000000" font-family="sans-serif" font-size="14" lengthAdjust="spacing" textLength="76" x="624" y="110.1426">AuthService</text><rect fill="#E2E2F0" height="31.6094" rx="2.5" ry="2.5" style="stroke:#181818;stroke-width:0.5;" width="90" x="617" y="1256.0313"/><text fill="#000000" font-family="sans-serif" font-size="14" lengthAdjust="spacing" textLength="76" x="624" y="1277.5645">AuthService</text><rect fill="#E2E2F0" height="31.6094" rx="2.5" ry="2.5" style="stroke:#181818;stroke-width:0.5;" width="111" x="760.5" y="88.6094"/><text fill="#000000" font-family="sans-serif" font-size="14" lengthAdjust="spacing" textLength="97" x="767.5" y="110.1426">UserRepository</text><rect fill="#E2E2F0" height="31.6094" rx="2.5" ry="2.5" style="stroke:#181818;stroke-width:0.5;" width="111" x="760.5" y="1256.0313"/><text fill="#000000" font-family="sans-serif" font-size="14" lengthAdjust="spacing" textLength="97" x="767.5" y="1277.5645">UserRepository</text><text fill="#000000" font-family="sans-serif" font-size="14" lengthAdjust="spacing" textLength="61" x="914.5" y="118.1426">Database</text><path d="M930,67.6094 C930,57.6094 948,57.6094 948,57.6094 C948,57.6094 966,57.6094 966,67.6094 L966,93.6094 C966,103.6094 948,103.6094 948,103.6094 C948,103.6094 930,103.6094 930,93.6094 L930,67.6094 " fill="#E2E2F0" style="stroke:#181818;stroke-width:1.5;"/><path d="M930,67.6094 C930,77.6094 948,77.6094 948,77.6094 C948,77.6094 966,77.6094 966,67.6094 " fill="none" style="stroke:#181818;stroke-width:1.5;"/><text fill="#000000" font-family="sans-serif" font-size="14" lengthAdjust="spacing" textLength="61" x="914.5" y="1270.5645">Database</text><path d="M930,1283.6406 C930,1273.6406 948,1273.6406 948,1273.6406 C948,1273.6406 966,1273.6406 966,1283.6406 L966,1309.6406 C966,1319.6406 948,1319.6406 948,1319.6406 C948,1319.6406 930,1319.6406 930,1309.6406 L930,1283.6406 " fill="#E2E2F0" style="stroke:#181818;stroke-width:1.5;"/><path d="M930,1283.6406 C930,1293.6406 948,1293.6406 948,1293.6406 C948,1293.6406 966,1293.6406 966,1283.6406 " fill="none" style="stroke:#181818;stroke-width:1.5;"/><polygon fill="#181818" points="282,149.5703,292,153.5703,282,157.5703,286,153.5703" style="stroke:#181818;stroke-width:1.0;"/><line style="stroke:#181818;stroke-width:1.0;" x1="84" x2="288" y1="153.5703" y2="153.5703"/><text fill="#000000" font-family="sans-serif" font-size="13" lengthAdjust="spacing" textLength="92" x="91" y="148.7139">Open auth page</text><polygon fill="#181818" points="95,179.9219,85,183.9219,95,187.9219,91,183.9219" style="stroke:#181818;stroke-width:1.0;"/><line style="stroke:#181818;stroke-width:1.0;stroke-dasharray:2.0,2.0;" x1="89" x2="293" y1="183.9219" y2="183.9219"/><text fill="#000000" font-family="sans-serif" font-size="13" lengthAdjust="spacing" textLength="168" x="101" y="179.0654">Show login / registration form</text><path d="M10,198.9219 L71,198.9219 L71,207.2734 L61,217.2734 L10,217.2734 L10,198.9219 " fill="#EEEEEE" style="stroke:#000000;stroke-width:1.5;"/><rect fill="none" height="1041.1094" style="stroke:#000000;stroke-width:1.5;" width="991.5" x="10" y="198.9219"/><text fill="#000000" font-family="sans-serif" font-size="13" font-weight="bold" lengthAdjust="spacing" textLength="16" x="25" y="213.417">alt</text><text fill="#000000" font-family="sans-serif" font-size="11" font-weight="bold" lengthAdjust="spacing" textLength="39" x="86" y="212.3408">[Login]</text><polygon fill="#181818" points="282,235.625,292,239.625,282,243.625,286,239.625" style="stroke:#181818;stroke-width:1.0;"/><line style="stroke:#181818;stroke-width:1.0;" x1="84" x2="288" y1="239.625" y2="239.625"/><text fill="#000000" font-family="sans-serif" font-size="13" lengthAdjust="spacing" textLength="147" x="91" y="234.7686">Submit email + password</text><polygon fill="#181818" points="421,265.9766,431,269.9766,421,273.9766,425,269.9766" style="stroke:#181818;stroke-width:1.0;"/><line style="stroke:#181818;stroke-width:1.0;" x1="294" x2="427" y1="269.9766" y2="269.9766"/><text fill="#000000" font-family="sans-serif" font-size="13" lengthAdjust="spacing" textLength="99" x="301" y="265.1201">POST /auth/login</text><polygon fill="#181818" points="650,296.3281,660,300.3281,650,304.3281,654,300.3281" style="stroke:#181818;stroke-width:1.0;"/><line style="stroke:#181818;stroke-width:1.0;" x1="433" x2="656" y1="300.3281" y2="300.3281"/><text fill="#000000" font-family="sans-serif" font-size="13" lengthAdjust="spacing" textLength="142" x="440" y="295.4717">authenticate(credentials)</text><polygon fill="#181818" points="804,326.6797,814,330.6797,804,334.6797,808,330.6797" style="stroke:#181818;stroke-width:1.0;"/><line style="stroke:#181818;stroke-width:1.0;" x1="662" x2="810" y1="330.6797" y2="330.6797"/><text fill="#000000" font-family="sans-serif" font-size="13" lengthAdjust="spacing" textLength="108" x="669" y="325.8232">findByEmail(email)</text><polygon fill="#181818" points="936,357.0313,946,361.0313,936,365.0313,940,361.0313" style="stroke:#181818;stroke-width:1.0;"/><line style="stroke:#181818;stroke-width:1.0;" x1="816" x2="942" y1="361.0313" y2="361.0313"/><text fill="#000000" font-family="sans-serif" font-size="13" lengthAdjust="spacing" textLength="66" x="823" y="356.1748">Select user</text><polygon fill="#181818" points="827,387.3828,817,391.3828,827,395.3828,823,391.3828" style="stroke:#181818;stroke-width:1.0;"/><line style="stroke:#181818;stroke-width:1.0;stroke-dasharray:2.0,2.0;" x1="821" x2="947" y1="391.3828" y2="391.3828"/><text fill="#000000" font-family="sans-serif" font-size="13" lengthAdjust="spacing" textLength="67" x="833" y="386.5264">User record</text><polygon fill="#181818" points="673,417.7344,663,421.7344,673,425.7344,669,421.7344" style="stroke:#181818;stroke-width:1.0;"/><line style="stroke:#181818;stroke-width:1.0;stroke-dasharray:2.0,2.0;" x1="667" x2="815" y1="421.7344" y2="421.7344"/><text fill="#000000" font-family="sans-serif" font-size="13" lengthAdjust="spacing" textLength="27" x="679" y="416.8779">User</text><path d="M20,436.7344 L81,436.7344 L81,445.0859 L71,455.0859 L20,455.0859 L20,436.7344 " fill="#EEEEEE" style="stroke:#000000;stroke-width:1.5;"/><rect fill="none" height="216.2969" style="stroke:#000000;stroke-width:1.5;" width="697" x="20" y="436.7344"/><text fill="#000000" font-family="sans-serif" font-size="13" font-weight="bold" lengthAdjust="spacing" textLength="16" x="35" y="451.2295">alt</text><text fill="#000000" font-family="sans-serif" font-size="11" font-weight="bold" lengthAdjust="spacing" textLength="100" x="96" y="450.1533">[Valid credentials]</text><polygon fill="#181818" points="444,473.4375,434,477.4375,444,481.4375,440,477.4375" style="stroke:#181818;stroke-width:1.0;"/><line style="stroke:#181818;stroke-width:1.0;stroke-dasharray:2.0,2.0;" x1="438" x2="661" y1="477.4375" y2="477.4375"/><text fill="#000000" font-family="sans-serif" font-size="13" lengthAdjust="spacing" textLength="83" x="450" y="472.5811">JWT / session</text><polygon fill="#181818" points="305,503.7891,295,507.7891,305,511.7891,301,507.7891" style="stroke:#181818;stroke-width:1.0;"/><line style="stroke:#181818;stroke-width:1.0;stroke-dasharray:2.0,2.0;" x1="299" x2="432" y1="507.7891" y2="507.7891"/><text fill="#000000" font-family="sans-serif" font-size="13" lengthAdjust="spacing" textLength="92" x="311" y="502.9326">200 OK + token</text><polygon fill="#181818" points="95,534.1406,85,538.1406,95,542.1406,91,538.1406" style="stroke:#181818;stroke-width:1.0;"/><line style="stroke:#181818;stroke-width:1.0;stroke-dasharray:2.0,2.0;" x1="89" x2="293" y1="538.1406" y2="538.1406"/><text fill="#000000" font-family="sans-serif" font-size="13" lengthAdjust="spacing" textLength="127" x="101" y="533.2842">Redirect to dashboard</text><line style="stroke:#000000;stroke-width:1.0;stroke-dasharray:2.0,2.0;" x1="20" x2="717" y1="547.1406" y2="547.1406"/><text fill="#000000" font-family="sans-serif" font-size="11" font-weight="bold" lengthAdjust="spacing" textLength="108" x="25" y="558.5596">[Invalid credentials]</text><polygon fill="#181818" points="444,580.3281,434,584.3281,444,588.3281,440,584.3281" style="stroke:#181818;stroke-width:1.0;"/><line style="stroke:#181818;stroke-width:1.0;stroke-dasharray:2.0,2.0;" x1="438" x2="661" y1="584.3281" y2="584.3281"/><text fill="#000000" font-family="sans-serif" font-size="13" lengthAdjust="spacing" textLength="117" x="450" y="579.4717">Authentication failed</text><polygon fill="#181818" points="305,610.6797,295,614.6797,305,618.6797,301,614.6797" style="stroke:#181818;stroke-width:1.0;"/><line style="stroke:#181818;stroke-width:1.0;stroke-dasharray:2.0,2.0;" x1="299" x2="432" y1="614.6797" y2="614.6797"/><text fill="#000000" font-family="sans-serif" font-size="13" lengthAdjust="spacing" textLength="101" x="311" y="609.8232">401 Unauthorized</text><polygon fill="#181818" points="95,641.0313,85,645.0313,95,649.0313,91,645.0313" style="stroke:#181818;stroke-width:1.0;"/><line style="stroke:#181818;stroke-width:1.0;stroke-dasharray:2.0,2.0;" x1="89" x2="293" y1="645.0313" y2="645.0313"/><text fill="#000000" font-family="sans-serif" font-size="13" lengthAdjust="spacing" textLength="119" x="101" y="640.1748">Show error message</text><line style="stroke:#000000;stroke-width:1.0;stroke-dasharray:2.0,2.0;" x1="10" x2="1001.5" y1="661.0313" y2="661.0313"/><text fill="#000000" font-family="sans-serif" font-size="11" font-weight="bold" lengthAdjust="spacing" textLength="75" x="15" y="672.4502">[Registration]</text><polygon fill="#181818" points="282,694.2188,292,698.2188,282,702.2188,286,698.2188" style="stroke:#181818;stroke-width:1.0;"/><line style="stroke:#181818;stroke-width:1.0;" x1="84" x2="288" y1="698.2188" y2="698.2188"/><text fill="#000000" font-family="sans-serif" font-size="13" lengthAdjust="spacing" textLength="138" x="91" y="693.3623">Submit registration form</text><polygon fill="#181818" points="421,724.5703,431,728.5703,421,732.5703,425,728.5703" style="stroke:#181818;stroke-width:1.0;"/><line style="stroke:#181818;stroke-width:1.0;" x1="294" x2="427" y1="728.5703" y2="728.5703"/><text fill="#000000" font-family="sans-serif" font-size="13" lengthAdjust="spacing" textLength="115" x="301" y="723.7139">POST /auth/register</text><polygon fill="#181818" points="650,754.9219,660,758.9219,650,762.9219,654,758.9219" style="stroke:#181818;stroke-width:1.0;"/><line style="stroke:#181818;stroke-width:1.0;" x1="433" x2="656" y1="758.9219" y2="758.9219"/><text fill="#000000" font-family="sans-serif" font-size="13" lengthAdjust="spacing" textLength="205" x="440" y="754.0654">registerStudent() / registerTeacher()</text><polygon fill="#181818" points="804,785.2734,814,789.2734,804,793.2734,808,789.2734" style="stroke:#181818;stroke-width:1.0;"/><line style="stroke:#181818;stroke-width:1.0;" x1="662" x2="810" y1="789.2734" y2="789.2734"/><text fill="#000000" font-family="sans-serif" font-size="13" lengthAdjust="spacing" textLength="130" x="669" y="784.417">existsByEmail(email)?</text><polygon fill="#181818" points="936,815.625,946,819.625,936,823.625,940,819.625" style="stroke:#181818;stroke-width:1.0;"/><line style="stroke:#181818;stroke-width:1.0;" x1="816" x2="942" y1="819.625" y2="819.625"/><text fill="#000000" font-family="sans-serif" font-size="13" lengthAdjust="spacing" textLength="107" x="823" y="814.7686">Check uniqueness</text><polygon fill="#181818" points="827,845.9766,817,849.9766,827,853.9766,823,849.9766" style="stroke:#181818;stroke-width:1.0;"/><line style="stroke:#181818;stroke-width:1.0;stroke-dasharray:2.0,2.0;" x1="821" x2="947" y1="849.9766" y2="849.9766"/><text fill="#000000" font-family="sans-serif" font-size="13" lengthAdjust="spacing" textLength="108" x="833" y="845.1201">Exists / Not exists</text><polygon fill="#181818" points="673,876.3281,663,880.3281,673,884.3281,669,880.3281" style="stroke:#181818;stroke-width:1.0;"/><line style="stroke:#181818;stroke-width:1.0;stroke-dasharray:2.0,2.0;" x1="667" x2="815" y1="880.3281" y2="880.3281"/><text fill="#000000" font-family="sans-serif" font-size="13" lengthAdjust="spacing" textLength="37" x="679" y="875.4717">Result</text><path d="M20,895.3281 L81,895.3281 L81,903.6797 L71,913.6797 L20,913.6797 L20,895.3281 " fill="#EEEEEE" style="stroke:#000000;stroke-width:1.5;"/><rect fill="none" height="337.7031" style="stroke:#000000;stroke-width:1.5;" width="971.5" x="20" y="895.3281"/><text fill="#000000" font-family="sans-serif" font-size="13" font-weight="bold" lengthAdjust="spacing" textLength="16" x="35" y="909.8232">alt</text><text fill="#000000" font-family="sans-serif" font-size="11" font-weight="bold" lengthAdjust="spacing" textLength="87" x="96" y="908.7471">[Email available]</text><polygon fill="#181818" points="804,932.0313,814,936.0313,804,940.0313,808,936.0313" style="stroke:#181818;stroke-width:1.0;"/><line style="stroke:#181818;stroke-width:1.0;" x1="662" x2="810" y1="936.0313" y2="936.0313"/><text fill="#000000" font-family="sans-serif" font-size="13" lengthAdjust="spacing" textLength="86" x="669" y="931.1748">save(new user)</text><polygon fill="#181818" points="936,962.3828,946,966.3828,936,970.3828,940,966.3828" style="stroke:#181818;stroke-width:1.0;"/><line style="stroke:#181818;stroke-width:1.0;" x1="816" x2="942" y1="966.3828" y2="966.3828"/><text fill="#000000" font-family="sans-serif" font-size="13" lengthAdjust="spacing" textLength="61" x="823" y="961.5264">Insert user</text><polygon fill="#181818" points="827,992.7344,817,996.7344,827,1000.7344,823,996.7344" style="stroke:#181818;stroke-width:1.0;"/><line style="stroke:#181818;stroke-width:1.0;stroke-dasharray:2.0,2.0;" x1="821" x2="947" y1="996.7344" y2="996.7344"/><text fill="#000000" font-family="sans-serif" font-size="13" lengthAdjust="spacing" textLength="74" x="833" y="991.8779">Created user</text><polygon fill="#181818" points="673,1023.0859,663,1027.0859,673,1031.0859,669,1027.0859" style="stroke:#181818;stroke-width:1.0;"/><line style="stroke:#181818;stroke-width:1.0;stroke-dasharray:2.0,2.0;" x1="667" x2="815" y1="1027.0859" y2="1027.0859"/><text fill="#000000" font-family="sans-serif" font-size="13" lengthAdjust="spacing" textLength="64" x="679" y="1022.2295">User saved</text><polygon fill="#181818" points="444,1053.4375,434,1057.4375,444,1061.4375,440,1057.4375" style="stroke:#181818;stroke-width:1.0;"/><line style="stroke:#181818;stroke-width:1.0;stroke-dasharray:2.0,2.0;" x1="438" x2="661" y1="1057.4375" y2="1057.4375"/><text fill="#000000" font-family="sans-serif" font-size="13" lengthAdjust="spacing" textLength="122" x="450" y="1052.5811">Registration success</text><polygon fill="#181818" points="305,1083.7891,295,1087.7891,305,1091.7891,301,1087.7891" style="stroke:#181818;stroke-width:1.0;"/><line style="stroke:#181818;stroke-width:1.0;stroke-dasharray:2.0,2.0;" x1="299" x2="432" y1="1087.7891" y2="1087.7891"/><text fill="#000000" font-family="sans-serif" font-size="13" lengthAdjust="spacing" textLength="70" x="311" y="1082.9326">201 Created</text><polygon fill="#181818" points="95,1114.1406,85,1118.1406,95,1122.1406,91,1118.1406" style="stroke:#181818;stroke-width:1.0;"/><line style="stroke:#181818;stroke-width:1.0;stroke-dasharray:2.0,2.0;" x1="89" x2="293" y1="1118.1406" y2="1118.1406"/><text fill="#000000" font-family="sans-serif" font-size="13" lengthAdjust="spacing" textLength="186" x="101" y="1113.2842">Show success / redirect to login</text><line style="stroke:#000000;stroke-width:1.0;stroke-dasharray:2.0,2.0;" x1="20" x2="991.5" y1="1127.1406" y2="1127.1406"/><text fill="#000000" font-family="sans-serif" font-size="11" font-weight="bold" lengthAdjust="spacing" textLength="111" x="25" y="1138.5596">[Email already used]</text><polygon fill="#181818" points="444,1160.3281,434,1164.3281,444,1168.3281,440,1164.3281" style="stroke:#181818;stroke-width:1.0;"/><line style="stroke:#181818;stroke-width:1.0;stroke-dasharray:2.0,2.0;" x1="438" x2="661" y1="1164.3281" y2="1164.3281"/><text fill="#000000" font-family="sans-serif" font-size="13" lengthAdjust="spacing" textLength="119" x="450" y="1159.4717">Registration rejected</text><polygon fill="#181818" points="305,1190.6797,295,1194.6797,305,1198.6797,301,1194.6797" style="stroke:#181818;stroke-width:1.0;"/><line style="stroke:#181818;stroke-width:1.0;stroke-dasharray:2.0,2.0;" x1="299" x2="432" y1="1194.6797" y2="1194.6797"/><text fill="#000000" font-family="sans-serif" font-size="13" lengthAdjust="spacing" textLength="68" x="311" y="1189.8232">409 Conflict</text><polygon fill="#181818" points="95,1221.0313,85,1225.0313,95,1229.0313,91,1225.0313" style="stroke:#181818;stroke-width:1.0;"/><line style="stroke:#181818;stroke-width:1.0;stroke-dasharray:2.0,2.0;" x1="89" x2="293" y1="1225.0313" y2="1225.0313"/><text fill="#000000" font-family="sans-serif" font-size="13" lengthAdjust="spacing" textLength="119" x="101" y="1220.1748">Show validation error</text><!--SRC=[XLHDZzem4BtdLumuWIeALBrq3rij7ojjMvKgMTgpYGTmrzZKTg3qrtV6IO24HNi01R_nl3VpNWWgQ8JHUtWemWPDKBa8oXh8y4-19aUOAh5sOfia8W_MGIV5jV817KfOU7GT43u-93lXwBRQ2HEWy-Yi2MXaX1zdJP2f9eGxgtNLuM5oNPAXswiSIpnhuioOuivwHQAEfOWqaIA8fV08dMdr597fE4du0lJlIGlSmNo71WHHm4wiCQ6pFa6nv0woZJs0jcjbO00kJklAdQoiupte0DyOJW0QNRDYkLK1S2kKXdVKslk3TPBAcE2UPgIY7_Fi6GRCFT1L4pfdD2DKd4t0RauxvXz2-nwNPLosIAbifOmS7sTCr8rqZ1D2-7JCIb1Z7g1WMu2F-lNDADXXNkhYApLrz93EUBoVGYi95_nqNWgen_ZoYwO0ZzxJOafq4j6uYG_38So_qWw2VS4IRkuuHQaSImmMfF2RfHLH46eoxydit-HlfNL5Eq1vfUFZS0GBmqkrJlsh2bvn6vsZQ6zf6eu3oJ0oIQAMzCB_6tvVH-IMuQvwTPgUrwTPA7ZSRkyKEtJFAF8DkcxBV_nBg6ycu7Cp0fCDvYzG6CMlCGtMoi4iTY2cxpPKxLfvID4NEjI9Y4mWzlGjbXfFVbJjlDXZr-0XHguNqGijJuPEJt5i2faufApBCzZEPEmjhm9mQGpu8i_B6Tiv7DK4jwolhiQTdpDPlven0zNicXh98mjzGut3tzJcrJX-0lhVMscLXrjwOlJBFZ6LLHhfyny0]--></g></svg>